<svg viewBox="0 0 24 24" id="loading-x-anim-1" aria-hidden="true" class="r-1p0dtai r-13gxpu9 r-4qtqp9 r-yyyyoo r-wy61xf r-1d2f490 r-tbvao r-ywje51 r-dnmrzs r-u8s1d r-zchlnj r-1plcrui r-ipm5af r-lrvibr r-1blnp2b" xmlns="http://www.w3.org/2000/svg"><g><path d="M18.244 2.25h3.308l-7.227 8.26 8.502 11.24H16.17l-5.214-6.817L4.99 21.75H1.68l7.73-8.835L1.254 2.25H8.08l4.713 6.231zm-1.161 17.52h1.833L7.084 4.126H5.117z"></path><path d="M 10,30 C 251,119 78,156 239,85 h 95 s 168,23 58,42 C 24,95 74,75 124,12 h 204 s 82,106 203,79 C 72,72 61,220 58,20 h 54 s 199,27 173,32 C 168,79 17,255 1,104 h 232 s 77,80 120,211 C 83,169 75,251 240,64 h 241 s 3,110 251,227 C 87,254 151,90 152,9 h 112 s 105,24 50,113 C 176,17 97,240 100,31 h 120 s 42,202 111,232 C 137,134 178,29 107,221 h 98 s 169,179 109,139 C 37,140 172,178 28,76 h 81 s 56,175 207,107 C 250,164 2,102 61,199 h 117 s 73,185 147,0 C 29,94 129,89 188,204 h 121 s 121,247 46,232 C 208,249 155,164 143,247 h 20 s 189,168 138,156 C 255,221 137,175 245,228 h 24 s 234,161 215,178 C 193,67 53,150 117,214 h 31 s 179,120 139,241 C 204,99 36,160 26,47 h 110 s 242,26 40,104 C 249,98 66,27 202,186 h 123 s 164,137 196,176" fill="#1d9bf008"></path></g></svg>